<?xml version="1.0" encoding="utf-8"?>
<?xml-stylesheet type="text/xsl" href="rss1.xsl"?>
<rss version="2.0" xmlns:atom="http://www.w3.org/2005/Atom" xmlns:content="http://purl.org/rss/1.0/modules/content/" xmlns:dc="http://purl.org/dc/elements/1.1/" xmlns:media="http://search.yahoo.com/mrss/">
<channel>
 <title>Getty</title>
 <link>http://www.gettyimg.com/</link>
 <atom:link href="http://www.gettyimg.com/" rel="self" type="application/rss+xml" />

 
                <item>
                <title><![CDATA[【Documentaries】WEB-RiP - Quiet on Set: The Dark Side of Kids TV (2024) 1080p WEB-RiP AAC H.265]]></title>
                <link><![CDATA[https://sharemania.us/threads/quiet-on-set-the-dark-side-of-kids-tv-2024-1080p-web-rip-aac-h-265.241084/]]></link>
                <description><![CDATA[<article>
<blockquote class="messageText SelectQuoteContainer ugc baseHtml">
<span style="font-size: 22px">Episodes 1-4</span><br>
<span style="font-size: 15px">Thumbnail and MediaInfo from first episode. Rest of the files are the same.</span><br>
<img src="https://images2.imgbox.com/81/f8/YBGwpRgj_o.jpg" class="bbCodeImage LbImage" alt="[​IMG]" data-url="https://images2.imgbox.com/81/f8/YBGwpRgj_o.jpg" style=""><br>
<div class="ToggleTriggerAnchor bbCodeSpoilerContainer">
<button type="button" class="button bbCodeSpoilerButton ToggleTrigger Tooltip JsOnly" data-target="> .SpoilerTarget"><span>Spoiler: <span class="SpoilerTitle">MediaInfo</span></span></button>
<div class="SpoilerTarget bbCodeSpoilerText">
<div class="bbCodeBlock bbCodeCode">
<div class="type">Code:</div>
<pre>Format                      : Matroska
Format version              : Version 4
File size                   : 340 MiB
Duration                    : 42 min 43 s
Overall bit rate            : 1 112 kb/s
Frame rate                  : 23.976 FPS
Writing application         : Lavf60.20.100
Writing library             : Lavf60.20.100
ErrorDetectionType          : Per level 1
MOVIE/ENCODER               : Lavf60.5.100

Video
ID                          : 1
Format                      : HEVC
Format/Info                 : High Efficiency Video Coding
Format profile              : Main 10@L4@Main
Codec ID                    : V_MPEGH/ISO/HEVC
Duration                    : 42 min 43 s
Bit rate                    : 8 908 kb/s
Width                       : 1 920 pixels
Height                      : 1 080 pixels
Display aspect ratio        : 16:9
Frame rate mode             : Constant
Frame rate                  : 23.976 (24000/1001) FPS
Color space                 : YUV
Chroma subsampling          : 4:2:0 (Type 0)
Bit depth                   : 10 bits
Bits/(Pixel*Frame)          : 0.179
Stream size                 : 2.66 GiB
Writing library             : x265 3.5+115-7fd02e716:[Windows][GCC 13.2.0][64 bit] 10bit
Encoding settings           : cpuid=1111039 / frame-threads=5 / numa-pools=32 / wpp / no-pmode / no-pme / no-psnr / no-ssim / log-level=2 / input-csp=1 / input-res=1920x1080 / interlace=0 / total-frames=0 / level-idc=0 / high-tier=1 / uhd-bd=0 / ref=1 / no-allow-non-conformance / no-repeat-headers / annexb / no-aud / no-eob / no-eos / no-hrd / info / hash=0 / temporal-layers=0 / open-gop / min-keyint=23 / keyint=250 / gop-lookahead=0 / bframes=3 / b-adapt=0 / b-pyramid / bframe-bias=0 / rc-lookahead=5 / lookahead-slices=6 / scenecut=0 / no-hist-scenecut / radl=0 / no-splice / no-intra-refresh / ctu=32 / min-cu-size=16 / no-rect / no-amp / max-tu-size=32 / tu-inter-depth=1 / tu-intra-depth=1 / limit-tu=0 / rdoq-level=0 / dynamic-rd=0.00 / no-ssim-rd / no-signhide / no-tskip / nr-intra=0 / nr-inter=0 / no-constrained-intra / strong-intra-smoothing / max-merge=2 / limit-refs=0 / no-limit-modes / me=0 / subme=0 / merange=57 / temporal-mvp / no-frame-dup / no-hme / no-weightp / no-weightb / no-analyze-src-pics / deblock=0:0 / no-sao / no-sao-non-deblock / rd=2 / selective-sao=0 / early-skip / rskip / fast-intra / no-tskip-fast / no-cu-lossless / no-b-intra / no-splitrd-skip / rdpenalty=0 / psy-rd=2.00 / psy-rdoq=0.00 / no-rd-refine / no-lossless / cbqpoffs=0 / crqpoffs=0 / rc=crf / crf=23.0 / qcomp=0.60 / qpstep=4 / stats-write=0 / stats-read=0 / ipratio=1.40 / pbratio=1.30 / aq-mode=1 / aq-strength=0.00 / cutree / zone-count=0 / no-strict-cbr / qg-size=32 / no-rc-grain / qpmax=69 / qpmin=0 / no-const-vbv / sar=1 / overscan=0 / videoformat=5 / range=0 / colorprim=2 / transfer=2 / colormatrix=2 / chromaloc=1 / chromaloc-top=0 / chromaloc-bottom=0 / display-window=0 / cll=0,0 / min-luma=0 / max-luma=1023 / log2-max-poc-lsb=8 / vui-timing-info / vui-hrd-info / slices=1 / no-opt-qp-pps / no-opt-ref-list-length-pps / no-multi-pass-opt-rps / scenecut-bias=0.05 / no-opt-cu-delta-qp / no-aq-motion / no-hdr10 / no-hdr10-opt / no-dhdr10-opt / no-idr-recovery-sei / analysis-reuse-level=0 / analysis-save-reuse-level=0 / analysis-load-reuse-level=0 / scale-factor=0 / refine-intra=0 / refine-inter=0 / refine-mv=1 / refine-ctu-distortion=0 / no-limit-sao / ctu-info=0 / no-lowpass-dct / refine-analysis-type=0 / copy-pic=1 / max-ausize-factor=1.0 / no-dynamic-refine / no-single-sei / no-hevc-aq / no-svt / no-field / qp-adaptation-range=1.00 / scenecut-aware-qp=0conformance-window-offsets / right=0 / bottom=0 / decoder-max-rate=0 / no-vbv-live-multi-pass / no-mcstf / no-sbrc
Default                     : Yes
Forced                      : No
Color range                 : Limited

Audio
ID                          : 2
Format                      : AAC LC
Format/Info                 : Advanced Audio Codec Low Complexity
Codec ID                    : A_AAC-2
Duration                    : 42 min 43 s
Bit rate                    : 125 kb/s
Channel(s)                  : 2 channels
Channel layout              : L R
Sampling rate               : 48.0 kHz
Frame rate                  : 46.875 FPS (1024 SPF)
Compression mode            : Lossy
Stream size                 : 38.3 MiB (11%)
Language                    : English
Default                     : Yes
Forced                      : No

Text
ID                          : 3
Format                      : ASS
Codec ID                    : S_TEXT/ASS
Codec ID/Info               : Advanced Sub Station Alpha
Duration                    : 42 min 14 s
Bit rate                    : 123 b/s
Frame rate                  : 0.395 FPS
Count of elements           : 1000
Compression mode            : Lossless
Stream size                 : 38.1 KiB (0%)
Writing library             : Lavc60.38.100 ssa
Language                    : English
Default                     : No
Forced                      : No

</pre>
</div></div>
</div><br>
<b>HOST</b>: pixeldrain<br>
<div class="bbCodeBlock bbCodeVfcHH HiddenContent">
<div class="attribution type">Hidden Content:</div>
<blockquote>You must reply before you can see the hidden data contained here.</blockquote>
</div>Credits to original ripper.
<div class="messageTextEndMarker">&nbsp;</div>
</blockquote>
</article>]]></description>
                <author><![CDATA[thankstome]]></author>
                </item>

                </channel></rss>